<?xml version="1.0" encoding="UTF-8" standalone="no"?>
<!-- Created with Inkscape (http://www.inkscape.org/) -->

<svg
   xmlns:dc="http://purl.org/dc/elements/1.1/"
   xmlns:cc="http://creativecommons.org/ns#"
   xmlns:rdf="http://www.w3.org/1999/02/22-rdf-syntax-ns#"
   xmlns:svg="http://www.w3.org/2000/svg"
   xmlns="http://www.w3.org/2000/svg"
   xmlns:sodipodi="http://sodipodi.sourceforge.net/DTD/sodipodi-0.dtd"
   xmlns:inkscape="http://www.inkscape.org/namespaces/inkscape"
   width="32"
   height="32"
   id="svg2"
   version="1.1"
   inkscape:version="0.48.4 r9939"
   sodipodi:docname="dingDialer.svg">
  <defs
     id="defs4" />
  <sodipodi:namedview
     id="base"
     pagecolor="#ffffff"
     bordercolor="#666666"
     borderopacity="1.0"
     inkscape:pageopacity="0.0"
     inkscape:pageshadow="2"
     inkscape:zoom="15.839192"
     inkscape:cx="10.219162"
     inkscape:cy="21.142579"
     inkscape:document-units="px"
     inkscape:current-layer="g2985"
     showgrid="true"
     inkscape:window-width="1855"
     inkscape:window-height="1056"
     inkscape:window-x="65"
     inkscape:window-y="24"
     inkscape:window-maximized="1"
     showguides="true"
     inkscape:guide-bbox="true">
    <inkscape:grid
       type="xygrid"
       id="grid2985"
       empspacing="8"
       visible="true"
       enabled="true"
       snapvisiblegridlinesonly="true"
       spacingx="0.5px"
       spacingy="0.5px"
       dotted="true" />
  </sodipodi:namedview>
  <metadata
     id="metadata7">
    <rdf:RDF>
      <cc:Work
         rdf:about="">
        <dc:format>image/svg+xml</dc:format>
        <dc:type
           rdf:resource="http://purl.org/dc/dcmitype/StillImage" />
        <dc:title />
      </cc:Work>
    </rdf:RDF>
  </metadata>
  <g
     inkscape:label="Capa 1"
     inkscape:groupmode="layer"
     id="layer1"
     transform="translate(0,-1020.3622)">
    <g
       id="g2985"
       transform="matrix(0.25191198,0,0,0.25191198,47.877634,739.38191)">
      <g
         id="g2989"
         transform="matrix(0.99206786,0,0,0.99206786,-190.03509,198.38263)">
        <path
           style="fill:#ffffff;fill-opacity:1;stroke:none"
           d="m 48,96 32,0 c 0,0 0,16 -16,16 C 48,112 48,96 48,96 z"
           id="path2987"
           inkscape:connector-curvature="0"
           transform="translate(0,924.36218)" />
        <path
           style="fill:#ffffff;fill-opacity:1;stroke:none"
           d="m 24,92 80,0 C 115.46977,92 94.855172,73.744696 92,64 89.719557,56.216854 88,40 88,40 88,40 88,16 64,16 40,16 40,40 40,40 40,40 38.280443,56.216854 36,64 33.144828,73.744696 12.530233,92 24,92 z"
           id="path2989"
           inkscape:connector-curvature="0"
           transform="translate(0,924.36218)"
           sodipodi:nodetypes="ssacscas" />
      </g>
    </g>
  </g>
</svg>
